# xmcd
#
# Track frame offsets: 
#        150
#        16530
#        28927
#        40940
#        56222
#        66390
#        79447
#        91907
#        106872
#        110885
#        115407
#        118255
#        122670
#        127937
#        131777
#        155920
#        175150
#        190772
#        199045
#        209305
#        216777
#        234777
#        258970
#        281155
#        289327
#        296737
#        301235
#        308137
#        315177
#
# Disc length: 4279 seconds
#
# Revision: 1
# Processed by: cddbd v1.5.2PL0 Copyright (c) Steve Scherf et al.
# Submitted via: ExactAudioCopy v1.0b3
#
DISCID=b410b51d
DTITLE=Daniel Varsano - Phillippe Entremont - Satie - Piano Works
DYEAR=1992
DGENRE=Classical
TTITLE0=Gymnopedies 1 - Lent Et Douloureux
TTITLE1=Gymnopedies 2 - Lent Et Triste
TTITLE2=Gymnopedies 3 - Lent Et Grave
TTITLE3=Gnossienne 1 - Lent
TTITLE4=Gnossienne 2 - Avec Etonnement
TTITLE5=Gnossienne 3 - Lent
TTITLE6=Gnossienne 4 - Lent
TTITLE7=Gnossienne 5 - Modere
TTITLE8=Valses I - Sa Taille. Pas Vite
TTITLE9=Valses II - Son binocle.Tres lent, s'il vous plait
TTITLE10=Valses III - Ses jambes.Determine
TTITLE11=Avant-dernieres pensees I - Idylle. Modere, je vous prie
TTITLE12=Avant-dernieres pensees II - Aubade
TTITLE13=Avant-dernieres pensees III - Meditation
TTITLE14=Sarabande 1
TTITLE15=Sarabande 3
TTITLE16=Nocturne 1
TTITLE17=Embryons desseches I - D'Holothurnie. Allez un peu
TTITLE18=Embryons desseches II - D'Edriophthalma.Sombre
TTITLE19=Embryons desseches III - De Podophthalma. Un peu vif
TTITLE20=Sonatine bureaucratique - Allegro - Andante - Vivace
TTITLE21=Je te veux - Valse. Modere
TTITLE22=Poudre d'or - Valse. Modere
TTITLE23=Descriptions automatiques I - Sur un vaisseau.Assez lent
TTITLE24=Descriptions automatiques II - Sur une lanterne. Lent
TTITLE25=Descriptions automatiques III - Sur un casque.Pas accelere
TTITLE26=Croquis et agaceries I - Tyrolienne turque. Avec precaution e
TTITLE26=t lent
TTITLE27=Croquis et agaceries II - Danse maigre. Assez lent, si vous l
TTITLE27=e voulez bien
TTITLE28=Croquis et agaceries III - Espana. Sorte de valse
EXTD=
EXTT0=
EXTT1=
EXTT2=
EXTT3=
EXTT4=
EXTT5=
EXTT6=
EXTT7=
EXTT8=
EXTT9=
EXTT10=
EXTT11=
EXTT12=
EXTT13=
EXTT14=
EXTT15=
EXTT16=
EXTT17=
EXTT18=
EXTT19=
EXTT20=
EXTT21=
EXTT22=
EXTT23=
EXTT24=
EXTT25=
EXTT26=
EXTT27=
EXTT28=
PLAYORDER=
